<?xml version="1.0" standalone="no"?>
<!DOCTYPE svg PUBLIC "-//W3C//DTD SVG 20010904//EN"
 "http://www.w3.org/TR/2001/REC-SVG-20010904/DTD/svg10.dtd">
<svg version="1.0" xmlns="http://www.w3.org/2000/svg"
 width="751.000000pt" height="751.000000pt" viewBox="0 0 751.000000 751.000000"
 preserveAspectRatio="xMidYMid meet">

<g transform="translate(0.000000,751.000000) scale(0.100000,-0.100000)"
fill="#000000" stroke="none">
<path d="M3500 6739 c-814 -71 -1567 -474 -2076 -1109 -330 -413 -538 -883
-625 -1418 -30 -183 -38 -592 -15 -790 96 -832 520 -1567 1195 -2072 329 -247
768 -443 1176 -525 352 -71 749 -78 1105 -19 1157 193 2107 1067 2395 2204
213 838 64 1707 -415 2420 -235 349 -569 667 -931 885 -365 221 -753 357
-1170 410 -150 20 -495 27 -639 14z m294 -1034 c175 -892 316 -1407 496 -1815
154 -348 410 -784 590 -1005 96 -117 291 -298 401 -371 56 -37 137 -82 180
-100 l79 -31 -55 -7 c-54 -6 -166 5 -239 25 -66 18 -226 90 -318 143 -269 156
-490 388 -699 736 -109 181 -275 518 -383 778 l-89 213 -67 -163 c-99 -240
-150 -351 -259 -563 -196 -382 -380 -638 -591 -820 -266 -230 -614 -378 -815
-347 l-50 8 40 13 c67 22 200 96 282 158 110 81 296 270 386 390 149 197 296
441 438 723 244 487 383 946 575 1903 31 158 60 284 64 280 3 -4 19 -71 34
-148z"/>
</g>
</svg>
